PathFileType	4	(X/Y/Z)	Patient4_TMGait_0pt4_02_left_13.trc.trc
DataRate	CameraRate	NumFrames	NumMarkers	Units	OrigDataRate	OrigDataStartFrame	OrigNumFrames
74.866310160428	74.866310160428	6	33	mm	74.866310160428	1	       141
Frame#	Time	Sacral			L.Shoulder			Chest			R.Shoulder			Neck			R.ASIS			L.ASIS			R.Thigh.Superior			R.Thigh.Lateral			R.Thigh.Inferior			R.Patella			L.Thigh.Superior			L.Thigh.Lateral			L.Thigh.Inferior			L.Patella			L.Shank.Superior			L.Shank.Lateral			L.Shank.Inferior			R.Shank.Superior			R.Shank.Lateral			R.Shank.Inferior			R.Heel			R.Midfoot.Superior			R.Midfoot.Lateral			R.Toe			L.Heel			L.Midfoot.Lateral			L.Midfoot.Superior			L.Toe			L.Elbow			L.Wrist			R.Elbow			R.Wrist			
		X1	Y1	Z1	X2	Y2	Z2	X3	Y3	Z3	X4	Y4	Z4	X5	Y5	Z5	X6	Y6	Z6	X7	Y7	Z7	X8	Y8	Z8	X9	Y9	Z9	X10	Y10	Z10	X11	Y11	Z11	X12	Y12	Z12	X13	Y13	Z13	X14	Y14	Z14	X15	Y15	Z15	X16	Y16	Z16	X17	Y17	Z17	X18	Y18	Z18	X19	Y19	Z19	X20	Y20	Z20	X21	Y21	Z21	X22	Y22	Z22	X23	Y23	Z23	X24	Y24	Z24	X25	Y25	Z25	X26	Y26	Z26	X27	Y27	Z27	X28	Y28	Z28	X29	Y29	Z29	X30	Y30	Z30	X31	Y31	Z31	X32	Y32	Z32	X33	Y33	Z33	

1	17.340000000000	865.943934861919	1004.419255802141	509.591414723411	1037.773409327081	1425.872760045241	304.247013231328	1149.328066993110	1366.141058190561	462.833144321754	1074.108317189460	1447.616579853095	637.417080509001	1034.438274019239	1495.342788179881	457.709412983935	1103.055706697189	944.622292960923	615.143728330696	1072.688101646848	963.377747057343	342.595102959158	1142.232641224299	740.936471206717	583.873553639234	1060.719130340770	632.035668192601	645.698478546643	1134.278810442662	579.541058187670	562.490795732760	1132.044643956592	491.303496631000	566.685345350622	1160.551077280188	782.666097096148	366.707030040728	1115.806121006996	655.590000641872	287.892505356503	1223.567142694589	596.693454613114	341.949670596432	1239.408001207479	509.942185332277	335.087934759936	1179.050309858905	438.975397395954	328.240392958232	1041.548233993575	381.972553053309	281.636777263796	1045.546259230608	250.043885888942	333.946890185471	1102.118533219615	402.885661590712	574.202475141382	1030.293310919565	301.271761366469	638.427064174006	1065.496376931731	205.432829967153	572.408727335806	925.511529878123	42.931960424002	549.482875700491	1097.667244532959	96.910582603649	579.528663042450	1010.799897273325	37.621141834143	621.733217150294	1218.912420727829	42.811757864076	603.999057062856	864.747638353942	165.040295734498	375.298339605803	924.267857156484	125.703147199487	292.884341411344	1029.414741029417	144.077217614075	312.252575190738	1116.982615612234	39.972705507379	279.730020200128	1002.668271831662	1070.596424857342	198.621112216033	1121.649831722289	836.860484059344	169.579373995535	1081.723109731438	1121.527282228944	803.315017184818	1289.844110324664	972.040284394340	767.422833219478	
2	17.353357142857	864.698288922224	1005.426390959969	511.992804597431	1036.403521643557	1425.916033988927	305.153050306657	1149.336798874031	1365.807006214419	462.585440861925	1076.536092238540	1447.937987136789	637.766340133633	1034.801240260543	1495.552682109229	458.289751998153	1102.432377013183	944.281879531555	615.192747814533	1069.642214164799	964.149643772226	342.918463803168	1139.604821017274	740.280886033019	583.155663563063	1057.764545047724	632.022388389805	645.815565132025	1130.023798629801	578.998513584063	562.047246351021	1127.295258613817	490.905338387392	566.441595630632	1158.060621683665	784.635520963394	366.797042532738	1113.902306976161	657.062720052017	288.451797240885	1222.367006943934	599.312305067893	342.420665634618	1239.727129958087	514.024149524379	335.216334392073	1183.338313056111	442.163769640648	327.639516805413	1050.312027874362	376.932468098611	281.982932414894	1064.303843918695	245.903296471455	332.365660754691	1097.055404115981	402.572237226127	574.132118558265	1025.273456224440	301.157103199854	638.520255888286	1059.986771583535	205.287253413435	572.456882067213	919.770129118419	42.907467532793	549.553397921287	1091.944245436061	96.885711018713	579.541228065392	1005.093136325717	37.573423322490	621.791488213878	1213.181535891898	42.825191010070	604.041021067145	892.368487123986	148.354349894918	375.229020230725	952.362844506471	114.606787833908	291.370807063816	1055.314024994764	140.153732359697	309.449250379667	1148.755092158204	43.948842819437	274.055438980831	998.309106554001	1070.732117908579	200.288413487702	1111.765511037339	834.738702237398	170.206333109584	1090.539812646472	1122.844900457775	803.908511509758	1303.770100270665	986.143295932513	761.744591905348	
3	17.366714285714	863.493330088800	1006.399611232015	514.357279931565	1035.050536602342	1425.947148101187	306.026694560739	1149.348996182943	1365.452026700733	462.306332304042	1078.943866242649	1448.220097608251	638.082250453631	1035.160178252937	1495.742082016865	458.845342214496	1101.809477079061	943.932074701169	615.191535506228	1066.636360683333	964.884128505617	343.194898529215	1136.980147841300	739.626808443685	582.416555189549	1054.843444929235	632.003148759416	645.938894315266	1125.797286476723	578.453346185546	561.608499181277	1122.566598401889	490.508933516368	566.212331938073	1155.500677956798	786.468926012068	366.897105828419	1111.951114553837	658.468705741274	288.925833631013	1220.977061928794	601.770045786931	343.010979460696	1239.889076049759	518.019838344708	335.406623857092	1187.472506960689	445.316196231163	327.114463725817	1059.148013859599	371.936810333301	282.214173466067	1082.979148860601	241.997212353446	330.852330150851	1092.038586031353	402.268551293700	574.078021216428	1020.288926641089	301.040813516721	638.619648228315	1054.516536827272	205.140906675462	572.507821594622	914.064572749408	42.884038269884	549.622813590368	1086.253697703469	96.851112752330	579.546817750730	999.420152266355	37.526752375044	621.848496224221	1207.487131922766	42.831000490425	604.084272168374	920.005249237689	132.118389101050	375.005202972014	980.551682496691	103.914607484492	289.846454029193	1081.158921047868	136.576530560864	306.801598234268	1180.380263960964	48.321213349783	268.815009605772	994.008204181493	1070.857963922415	201.921939284652	1101.941300576708	832.644640671315	170.814188342785	1099.312177480621	1124.100058316005	804.391924238668	1317.439498683970	1000.167208763849	755.996800155121	
4	17.380071428571	862.363841626060	1007.309717660440	516.626364146190	1033.734996492956	1425.960114200514	306.826899027887	1149.364320200604	1365.064036265009	461.963323064693	1081.297514971765	1448.433311587139	638.325134658915	1035.506254286044	1495.896138361248	459.343767380700	1101.186076516112	943.570659079826	615.094108032132	1063.717238816821	965.546907215190	343.380401808031	1134.370575421418	738.977873536446	581.647606872593	1051.980432057187	631.974305091435	646.064916602563	1121.633264244518	577.906351940308	561.180218052435	1117.887785538046	490.118216638629	566.006777004745	1152.838256529480	788.051018193893	367.016495499616	1109.929017800253	659.739592365547	289.260262474036	1219.279011684849	603.926133213639	343.782262183154	1239.774703795349	521.823956067910	335.707680222622	1191.304910201628	448.379409410742	326.724102718670	1068.025536939302	367.078372390441	282.255083934037	1101.335221997977	238.546772414876	329.470943852829	1087.115361702883	401.985021414777	574.049403808849	1015.374506270949	300.925221185605	638.726380330809	1049.127519290203	204.995253108586	572.562049440894	908.432935259341	42.863401987343	549.691120489923	1080.632278325054	96.802163161057	579.543882238803	993.818989101714	37.484291598164	621.904757626445	1201.867400674223	42.823583912607	604.129917504757	947.410793427134	116.832583159471	374.525205813977	1008.632754130900	94.043866755255	288.324733307683	1106.659311222621	133.646767833477	304.448210567877	1211.436213134365	53.354247840038	264.369530813604	989.826002374797	1070.972057290293	203.474554756754	1092.273581224739	830.622690878658	171.379678774889	1107.966075682993	1125.233828170336	804.627311740109	1330.559631661151	1013.969969485040	750.115908811106	
5	17.393428571429	861.330493961066	1008.137260657422	518.747664610835	1032.472159512430	1425.952264615809	307.516892938095	1149.380953475244	1364.634683286175	461.526445461652	1083.570314454569	1448.556592051524	638.458471894119	1035.831772404147	1496.005035441914	459.754819487329	1100.559911764405	943.198439171849	614.864560623156	1060.918820085388	966.113129825540	343.438061025608	1131.783595958034	738.334618517811	580.850581899855	1049.178348948558	631.933217466713	646.186444093853	1117.547266380985	577.357099210672	560.767607688136	1113.271041749108	489.736305680007	565.829806628929	1150.048811061689	789.304136035837	367.167131055823	1107.838084874015	660.839090436089	289.407394811722	1217.197432383482	605.687441670429	344.764074287024	1239.301743645965	525.364536444771	336.152492442497	1194.728079577425	451.318358837584	326.513605348836	1076.920949385459	362.453439401758	282.043152677564	1119.164539213054	235.738872239964	328.278290138833	1082.305030830729	401.726532616998	574.047732389045	1010.541447721399	300.813710746920	638.840038546132	1043.835838524263	204.851754211626	572.618326615464	902.887908868314	42.846979953205	549.758688561441	1075.091914883903	96.736663662027	579.531759562127	988.301982013596	37.448023389113	621.960863786851	1196.334978114707	42.799863772392	604.178957301124	974.339769354763	102.922870357734	373.706264190386	1036.416743171479	85.337826807830	286.829988988202	1131.559200030571	131.605089629953	302.515728232708	1241.566140204384	59.238824436490	261.058916282963	985.799425920877	1071.076306055670	204.905501782220	1082.825264776210	828.710741657728	171.885370881953	1116.459720124622	1126.200892557523	804.486305194547	1342.911350494332	1027.448150543614	744.031443446501	
6	17.406785714286	860.399228657291	1008.873480349260	520.674868690156	1031.272487511523	1425.924862333070	308.066058698874	1149.395343501387	1364.161767465210	460.971949233326	1085.740378266356	1448.580444096655	638.451916956017	1036.129666161298	1496.065210447106	460.052157966882	1099.928628761629	942.819659088081	614.481698015395	1058.264528629466	966.569263150732	343.341915946035	1129.225713455452	737.695579901893	580.038621505868	1046.422895050617	631.878810130337	646.292906813843	1113.541929039964	576.805120824111	560.374968434387	1108.717717337730	489.365335410633	565.680594089498	1147.127632452561	790.195875376888	367.360491302107	1105.707854105281	661.762154781704	289.334109660211	1214.717094020127	607.015126664754	345.943944778397	1238.435432685474	528.600381652642	336.752412338692	1197.679412465588	454.111425272804	326.507142189536	1085.791726688211	358.159286114300	281.542325824880	1136.268219788382	233.703988001313	327.317103144216	1077.605514993782	401.493152707274	574.066686082259	1005.783844962829	300.710915829534	638.958164065929	1038.638856603117	204.712369960401	572.674087894329	897.424330675404	42.836036645241	549.826008021943	1069.627542464479	96.655635802929	579.511309564253	982.863398151128	37.418796722464	622.017350243493	1190.884480563595	42.759686262124	604.231924195379	1000.510213184552	90.713056816741	372.502674705082	1063.673296230401	78.036731051202	285.398484329921	1155.602069086443	130.599148157230	301.102328019780	1270.442455651931	66.045988670107	259.151489221473	981.944731054951	1071.176567533864	206.180965655245	1073.637823497387	826.940362188951	172.319525074827	1124.771345097664	1126.973288217409	803.861531273363	1354.349876129244	1040.521438042142	737.683027052604	
